<?xml version="1.0" encoding="utf-8"?>
<!-- Generator: Adobe Illustrator 21.0.0, SVG Export Plug-In . SVG Version: 6.00 Build 0)  -->
<svg version="1.1" id="Layer_1" xmlns="http://www.w3.org/2000/svg" xmlns:xlink="http://www.w3.org/1999/xlink" x="0px" y="0px"
	 viewBox="0 0 200 170" style="enable-background:new 0 0 200 170;" xml:space="preserve">
<style type="text/css">
	.st0{fill:#98d6d1;}
</style>
<g>
	<path class="st0" d="M154.9,6.3l43.5,72.4c0.9,1.4,1.4,3,1.6,4.5V0h-56.4C148.3,0,152.6,2.4,154.9,6.3z"/>
	<path class="st0" d="M45.3,163.7L1.9,91.3c-2.3-3.9-2.3-8.7,0-12.6L45.3,6.3C47.7,2.4,52,0,56.7,0H0v170h56.7
		C52,170,47.7,167.6,45.3,163.7z"/>
	<path class="st0" d="M198.4,91.3l-43.5,72.4c-2.3,3.9-6.7,6.3-11.3,6.3H200V86.8C199.8,88.3,199.2,89.9,198.4,91.3z"/>
</g>
</svg>
