<?xml version="1.0" encoding="utf-8"?>
<!-- Generator: Adobe Illustrator 21.0.0, SVG Export Plug-In . SVG Version: 6.00 Build 0)  -->
<svg version="1.1" id="Layer_1" xmlns="http://www.w3.org/2000/svg" xmlns:xlink="http://www.w3.org/1999/xlink" x="0px" y="0px"
	 viewBox="0 0 200 160" style="enable-background:new 0 0 200 160;" xml:space="preserve">
<style type="text/css">
	.st0{fill:#98D6D1;}
</style>
<g>
	<path class="st0" d="M154.9,5.9l43.5,68.1c0.9,1.3,1.4,2.8,1.6,4.2V0h-56.4C148.3,0,152.6,2.3,154.9,5.9z"/>
	<path class="st0" d="M45.3,154.1L1.9,85.9c-2.3-3.7-2.3-8.2,0-11.9L45.3,5.9C47.7,2.3,52,0,56.7,0H0v160h56.7
		C52,160,47.7,157.7,45.3,154.1z"/>
	<path class="st0" d="M198.4,85.9l-43.5,68.1c-2.3,3.7-6.7,5.9-11.3,5.9H200V81.7C199.8,83.1,199.2,84.6,198.4,85.9z"/>
</g>
</svg>
