<?xml version="1.0" encoding="utf-8"?>
<!-- Generator: Adobe Illustrator 21.0.0, SVG Export Plug-In . SVG Version: 6.00 Build 0)  -->
<svg version="1.1" id="Layer_1" xmlns="http://www.w3.org/2000/svg" xmlns:xlink="http://www.w3.org/1999/xlink" x="0px" y="0px"
	 viewBox="0 0 20 20" style="enable-background:new 0 0 20 20;" xml:space="preserve">
<style type="text/css">
	.st0{fill:#221FC0;}
</style>
<g>
	<path class="st0" d="M12,12.7c-0.7,0.8-1.4,1.2-2.4,1.2C7.5,13.9,6,12.2,6,10c0-2.2,1.6-3.9,3.6-3.9c1,0,1.7,0.4,2.4,1.2V6.9
		c0-0.5,0-0.6,0.6-0.6h0.9C14,6.3,14,6.4,14,6.9v6.2c0,0.5-0.1,0.6-0.6,0.6h-0.9c-0.5,0-0.6-0.1-0.6-0.6V12.7z M8.1,10
		c0,1.1,0.9,2.1,2,2.1c1.2,0,2-0.9,2-2.1c0-1.1-0.9-2-2-2C9,8,8.1,8.9,8.1,10z"/>
</g>
</svg>
