<?xml version="1.0" encoding="utf-8"?>
<!-- Generator: Adobe Illustrator 21.0.0, SVG Export Plug-In . SVG Version: 6.00 Build 0)  -->
<svg version="1.1" id="Layer_1" xmlns="http://www.w3.org/2000/svg" xmlns:xlink="http://www.w3.org/1999/xlink" x="0px" y="0px"
	 viewBox="0 0 20 20" style="enable-background:new 0 0 20 20;" xml:space="preserve">
<style type="text/css">
	.st0{fill:#221FC0;}
</style>
<g>
	<path class="st0" d="M11.5,12c-0.5,0.6-1,0.9-1.8,0.9C8.1,12.9,7,11.7,7,10c0-1.6,1.2-2.9,2.7-2.9c0.7,0,1.3,0.3,1.8,0.9V7.7
		c0-0.4,0-0.4,0.4-0.4h0.7c0.4,0,0.4,0,0.4,0.4v4.6c0,0.4,0,0.4-0.4,0.4h-0.7c-0.4,0-0.4,0-0.4-0.4V12z M8.6,10
		c0,0.8,0.7,1.5,1.5,1.5c0.9,0,1.5-0.7,1.5-1.6c0-0.8-0.7-1.5-1.5-1.5C9.3,8.5,8.6,9.1,8.6,10z"/>
</g>
</svg>
