<?xml version="1.0" encoding="utf-8"?>
<!-- Generator: Adobe Illustrator 21.0.0, SVG Export Plug-In . SVG Version: 6.00 Build 0)  -->
<svg version="1.1" id="Layer_1" xmlns="http://www.w3.org/2000/svg" xmlns:xlink="http://www.w3.org/1999/xlink" x="0px" y="0px"
	 viewBox="0 0 20 20" style="enable-background:new 0 0 20 20;" xml:space="preserve">
<style type="text/css">
	.st0{fill:#221FC0;}
</style>
<g>
	<path class="st0" d="M11,11.4c-0.3,0.4-0.7,0.6-1.2,0.6c-1,0-1.8-0.8-1.8-1.9c0-1.1,0.8-1.9,1.8-1.9c0.5,0,0.9,0.2,1.2,0.6V8.5
		c0-0.3,0-0.3,0.3-0.3h0.4c0.3,0,0.3,0,0.3,0.3v3.1c0,0.3,0,0.3-0.3,0.3h-0.4c-0.3,0-0.3,0-0.3-0.3V11.4z M9,10c0,0.6,0.5,1,1,1
		c0.6,0,1-0.5,1-1c0-0.6-0.5-1-1-1C9.5,9,9,9.4,9,10z"/>
</g>
</svg>
