<?xml version="1.0" encoding="utf-8"?>
<!-- Generator: Adobe Illustrator 21.0.0, SVG Export Plug-In . SVG Version: 6.00 Build 0)  -->
<svg version="1.1" id="Layer_1" xmlns="http://www.w3.org/2000/svg" xmlns:xlink="http://www.w3.org/1999/xlink" x="0px" y="0px"
	 viewBox="0 0 20 20" style="enable-background:new 0 0 20 20;" xml:space="preserve">
<style type="text/css">
	.st0{fill:none;stroke:#221FC0;stroke-width:2;stroke-linecap:round;stroke-miterlimit:10;}
</style>
<path d="M17.4-0.5c0,0-5.8,3.1-7.6,6.1c-1.3,2.2-2,4.8-0.7,8.4c0.9,2.3,3.5,4.8,5.1,6.4"/>
<path d="M-0.9,7.5c0,0,5.1,0.1,6.5-2.7c0.8-1.8-0.2-5.4-0.2-5.4"/>
<path d="M8,20.6c0,0-1-4.2-3.4-6.5c-1.9-1.8-4.8-2.4-4.8-2.4"/>
<path d="M20,4.1c0,0-4.8,1.7-5.6,5.1c-0.8,3.4,2.9,7.3,5.9,8.1"/>
</svg>
